# xmcd CD database file
#
# Track frame offsets:
#	150
#	18815
#	25788
#	34527
#	43265
#	47624
#	103217
#	110888
#	120651
#	138141
#	156354
#	168520
#	181508
#	199079
#	212360
#	214377
#	219515
#	225858
#	250484
#	266447
#	268256
#	271774
#	290484
#	302481
#
# Disc length: 4512 seconds
#
# Revision: 1
# Processed by: cddbd v1.5.2PL0 Copyright (c) Steve Scherf et al.
# Submitted via: CDex 1.51
#
DISCID=54119e18
DTITLE=Paul Auster - Mein New York CD2
DYEAR=2001
DGENRE=Lesung
TTITLE0=Mein New York CD2
TTITLE1=Fluchtpunkte
TTITLE2=Fluchtpunkte
TTITLE3=Fluchtpunkte
TTITLE4=Fluchtpunkte
TTITLE5=Fluchtpunkte
TTITLE6=Fluchtpunkte
TTITLE7=Fluchtpunkte
TTITLE8=Fluchtpunkte
TTITLE9=Metamorphosen
TTITLE10=Metamorphosen
TTITLE11=Metamorphosen
TTITLE12=Metamorphosen
TTITLE13=Metamorphosen
TTITLE14=Metamorphosen
TTITLE15=Metamorphosen
TTITLE16=Metamorphosen
TTITLE17=Metamorphosen
TTITLE18=Babel
TTITLE19=Babel
TTITLE20=Babel
TTITLE21=Babel
TTITLE22=Babel
TTITLE23=Babel
EXTD=YEAR: 2001
EXTT0=
EXTT1=
EXTT2=
EXTT3=
EXTT4=
EXTT5=
EXTT6=
EXTT7=
EXTT8=
EXTT9=
EXTT10=
EXTT11=
EXTT12=
EXTT13=
EXTT14=
EXTT15=
EXTT16=
EXTT17=
EXTT18=
EXTT19=
EXTT20=
EXTT21=
EXTT22=
EXTT23=
PLAYORDER=
